P3 64 64
255


 0 0 0 0 0 0 0 0 0 0 0 0 0 0 0 0 0 0 0 0 0 0 0 0 0 0 0 0 0 0 0 0 0 0 0 0 0 0 0 0 0 0 0 0 0 0 0 0 0 0 0 0 0 0 0 0 0 0 0 0 0 0 0 0 0 0 0 0 0 0 0 0 0 0 0 0 0 0 0 0 0 0 0 0 0 0 0 0 0 0 0 0 0 0 0 0 0 0 0 0 0 0 0 0 0 0 0 0 0 0 0 0 0 0 0 0 0 0 0 0 0 0 0 0 0 0 0 0 0 0 0 0 0 0 0 0 0 0 0 0 0 0 0 0 0 0 0 0 0 0 0 0 0 0 0 0 0 0 0 0 0 0 0 0 0 0 0 0 0 0 0 0 0 0 0 0 0 0 0 0 0 0 0 0 0 0 0 0 0 0 0 0
 0 0 0 0 0 0 0 0 0 0 0 0 0 0 0 0 0 0 0 0 0 0 0 0 0 0 0 0 0 0 0 0 0 0 0 0 0 0 0 0 0 0 0 0 0 0 0 0 0 0 0 0 0 0 0 0 0 0 0 0 0 0 0 0 0 0 0 0 0 0 0 0 0 0 0 0 0 0 0 0 0 0 0 0 0 0 0 0 0 0 0 0 0 0 0 0 0 0 0 0 0 0 0 0 0 0 0 0 0 0 0 0 0 0 0 0 0 0 0 0 0 0 0 0 0 0 0 0 0 0 0 0 0 0 0 0 0 0 0 0 0 0 0 0 0 0 0 0 0 0 0 0 0 0 0 0 0 0 0 0 0 0 0 0 0 0 0 0 0 0 0 0 0 0 0 0 0 0 0 0 0 0 0 0 0 0 0 0 0 0 0 0
 0 0 0 0 0 0 0 0 0 0 0 0 0 0 0 0 0 0 0 0 0 0 0 0 0 0 0 0 0 0 0 0 0 0 0 0 0 0 0 0 0 0 0 0 0 0 0 0 0 0 0 0 0 0 0 0 0 0 0 0 0 0 0 0 0 0 0 0 0 0 0 0 0 0 0 0 0 0 0 0 0 0 0 0 0 0 0 0 0 0 0 0 0 0 0 0 0 0 0 0 0 0 0 0 0 0 0 0 0 0 0 0 0 0 0 0 0 0 0 0 0 0 0 0 0 0 0 0 0 0 0 0 0 0 0 0 0 0 0 0 0 0 0 0 0 0 0 0 0 0 0 0 0 0 0 0 0 0 0 0 0 0 0 0 0 0 0 0 0 0 0 0 0 0 0 0 0 0 0 0 0 0 0 0 0 0 0 0 0 0 0 0
 0 0 0 0 0 0 0 0 0 0 0 0 0 0 0 0 0 0 0 0 0 0 0 0 0 0 0 0 0 0 0 0 0 0 0 0 0 0 0 0 0 0 0 0 0 0 0 0 0 0 0 0 0 0 0 0 0 0 0 0 0 0 0 0 0 0 0 0 0 0 0 0 0 0 0 0 0 0 0 0 0 0 0 0 0 0 0 0 0 0 0 0 0 0 0 0 0 0 0 0 0 0 0 0 0 0 0 0 0 0 0 0 0 0 0 0 0 0 0 0 0 0 0 0 0 0 0 0 0 0 0 0 0 0 0 0 0 0 0 0 0 0 0 0 0 0 0 0 0 0 0 0 0 0 0 0 0 0 0 0 0 0 0 0 0 0 0 0 0 0 0 0 0 0 0 0 0 0 0 0 0 0 0 0 0 0 0 0 0 0 0 0
 0 0 0 0 0 0 0 0 0 0 0 0 0 0 0 0 0 0 0 0 0 0 0 0 0 0 0 0 0 0 0 0 0 0 0 0 0 0 0 0 0 0 0 0 0 0 0 0 0 0 0 0 0 0 0 0 0 0 0 0 0 0 0 0 0 0 0 0 0 0 0 0 0 0 0 0 0 0 0 0 0 175 147 82 169 147 81 164 148 80 160 150 79 157 152 79 154 154 79 152 157 79 150 160 79 148 164 80 147 169 81 147 175 82 0 0 0 0 0 0 0 0 0 0 0 0 0 0 0 0 0 0 0 0 0 0 0 0 0 0 0 0 0 0 0 0 0 0 0 0 0 0 0 0 0 0 0 0 0 0 0 0 0 0 0 0 0 0 0 0 0 0 0 0 0 0 0 0 0 0 0 0 0 0 0 0 0 0 0 0 0 0
 0 0 0 0 0 0 0 0 0 0 0 0 0 0 0 0 0 0 0 0 0 0 0 0 0 0 0 0 0 0 0 0 0 0 0 0 0 0 0 0 0 0 0 0 0 0 0 0 0 0 0 0 0 0 0 0 0 0 0 0 0 0 0 0 0 0 0 0 0 182 132 81 173 132 78 166 132 76 161 133 75 157 134 74 154 135 74 150 137 73 148 138 73 145 140 73 142 142 73 140 145 73 138 148 73 137 150 73 135 154 74 134 157 74 133 161 75 132 166 76 132 173 78 132 182 81 0 0 0 0 0 0 0 0 0 0 0 0 0 0 0 0 0 0 0 0 0 0 0 0 0 0 0 0 0 0 0 0 0 0 0 0 0 0 0 0 0 0 0 0 0 0 0 0 0 0 0 0 0 0 0 0 0 0 0 0 0 0 0 0 0 0
 0 0 0 0 0 0 0 0 0 0 0 0 0 0 0 0 0 0 0 0 0 0 0 0 0 0 0 0 0 0 0 0 0 0 0 0 0 0 0 0 0 0 0 0 0 0 0 0 0 0 0 0 0 0 0 0 0 0 0 0 0 0 0 176 121 77 168 121 75 162 121 73 158 122 72 153 123 71 150 124 70 146 125 69 143 127 69 141 128 69 138 130 68 136 132 68 134 134 68 132 136 68 130 138 68 128 141 69 127 143 69 125 146 69 124 150 70 123 153 71 122 158 72 121 162 73 121 168 75 121 176 77 0 0 0 0 0 0 0 0 0 0 0 0 0 0 0 0 0 0 0 0 0 0 0 0 0 0 0 0 0 0 0 0 0 0 0 0 0 0 0 0 0 0 0 0 0 0 0 0 0 0 0 0 0 0 0 0 0 0 0 0
 0 0 0 0 0 0 0 0 0 0 0 0 0 0 0 0 0 0 0 0 0 0 0 0 0 0 0 0 0 0 0 0 0 0 0 0 0 0 0 0 0 0 0 0 0 0 0 0 0 0 0 0 0 0 0 0 0 175 112 75 166 112 72 160 112 70 155 113 69 151 114 68 147 115 67 144 116 66 141 117 66 138 118 65 135 120 65 133 121 65 131 123 65 129 125 64 127 127 64 125 129 64 123 131 65 121 133 65 120 135 65 118 138 65 117 141 66 116 144 66 115 147 67 114 151 68 113 155 69 112 160 70 112 166 72 112 175 75 0 0 0 0 0 0 0 0 0 0 0 0 0 0 0 0 0 0 0 0 0 0 0 0 0 0 0 0 0 0 0 0 0 0 0 0 0 0 0 0 0 0 0 0 0 0 0 0 0 0 0 0 0 0
 0 0 0 0 0 0 0 0 0 0 0 0 0 0 0 0 0 0 0 0 0 0 0 0 0 0 0 0 0 0 0 0 0 0 0 0 0 0 0 0 0 0 0 0 0 0 0 0 0 0 0 176 105 74 166 104 71 159 104 68 154 105 67 149 105 66 146 106 65 142 107 64 139 108 63 136 110 63 133 111 62 131 112 62 128 114 62 126 115 61 124 117 61 122 119 61 120 120 61 119 122 61 117 124 61 115 126 61 114 128 62 112 131 62 111 133 62 110 136 63 108 139 63 107 142 64 106 146 65 105 149 66 105 154 67 104 159 68 104 166 71 105 176 74 0 0 0 0 0 0 0 0 0 0 0 0 0 0 0 0 0 0 0 0 0 0 0 0 0 0 0 0 0 0 0 0 0 0 0 0 0 0 0 0 0 0 0 0 0 0 0 0
 0 0 0 0 0 0 0 0 0 0 0 0 0 0 0 0 0 0 0 0 0 0 0 0 0 0 0 0 0 0 0 0 0 0 0 0 0 0 0 0 0 0 0 0 0 184 99 75 168 97 70 160 97 67 154 97 65 149 98 64 145 99 63 141 100 62 138 101 61 135 102 61 132 103 60 129 104 60 127 106 59 124 107 59 122 108 59 120 110 59 118 111 58 116 113 58 115 115 58 113 116 58 111 118 58 110 120 59 108 122 59 107 124 59 106 127 59 104 129 60 103 132 60 102 135 61 101 138 61 100 141 62 99 145 63 98 149 64 97 154 65 97 160 67 97 168 70 99 184 75 0 0 0 0 0 0 0 0 0 0 0 0 0 0 0 0 0 0 0 0 0 0 0 0 0 0 0 0 0 0 0 0 0 0 0 0 0 0 0 0 0 0
 0 0 0 0 0 0 0 0 0 0 0 0 0 0 0 0 0 0 0 0 0 0 0 0 0 0 0 0 0 0 0 0 0 0 0 0 0 0 0 0 0 0 173 91 70 161 90 67 154 90 64 149 91 63 144 92 61 140 93 60 137 93 60 134 95 59 131 96 58 128 97 58 125 98 57 123 99 57 121 101 57 119 102 56 117 103 56 115 105 56 113 106 56 111 108 56 109 109 56 108 111 56 106 113 56 105 115 56 103 117 56 102 119 56 101 121 57 99 123 57 98 125 57 97 128 58 96 131 58 95 134 59 93 137 60 93 140 60 92 144 61 91 149 63 90 154 64 90 161 67 91 173 70 0 0 0 0 0 0 0 0 0 0 0 0 0 0 0 0 0 0 0 0 0 0 0 0 0 0 0 0 0 0 0 0 0 0 0 0 0 0 0
 0 0 0 0 0 0 0 0 0 0 0 0 0 0 0 0 0 0 0 0 0 0 0 0 0 0 0 0 0 0 0 0 0 0 0 0 0 0 0 167 84 67 156 84 64 150 84 62 145 85 60 140 86 59 136 87 58 133 88 57 130 89 57 127 90 56 124 91 55 122 92 55 120 93 55 117 95 54 115 96 54 113 97 54 111 99 54 110 100 53 108 102 53 106 103 53 105 105 53 103 106 53 102 108 53 100 110 53 99 111 54 97 113 54 96 115 54 95 117 54 93 120 55 92 122 55 91 124 55 90 127 56 89 130 57 88 133 57 87 136 58 86 140 59 85 145 60 84 150 62 84 156 64 84 167 67 0 0 0 0 0 0 0 0 0 0 0 0 0 0 0 0 0 0 0 0 0 0 0 0 0 0 0 0 0 0 0 0 0 0 0 0
 0 0 0 0 0 0 0 0 0 0 0 0 0 0 0 0 0 0 0 0 0 0 0 0 0 0 0 0 0 0 0 0 0 0 0 0 162 78 65 152 78 61 146 78 60 141 79 58 137 80 57 133 81 56 130 82 55 127 83 54 124 84 54 121 85 53 119 86 53 116 88 52 114 89 52 112 90 52 110 91 52 108 93 51 107 94 51 105 96 51 103 97 51 102 99 51 100 100 51 99 102 51 97 103 51 96 105 51 94 107 51 93 108 51 91 110 52 90 112 52 89 114 52 88 116 52 86 119 53 85 121 53 84 124 54 83 127 54 82 130 55 81 133 56 80 137 57 79 141 58 78 146 60 78 152 61 78 162 65 0 0 0 0 0 0 0 0 0 0 0 0 0 0 0 0 0 0 0 0 0 0 0 0 0 0 0 0 0 0 0 0 0
 0 0 0 0 0 0 0 0 0 0 0 0 0 0 0 0 0 0 0 0 0 0 0 0 0 0 0 0 0 0 0 0 0 158 71 62 149 71 59 142 72 57 137 73 56 133 74 55 130 75 54 126 76 53 123 77 52 121 78 52 118 80 51 116 81 51 114 82 50 111 83 50 109 85 50 107 86 49 106 87 49 104 89 49 102 90 49 100 91 49 99 93 49 97 94 49 96 96 49 94 97 49 93 99 49 91 100 49 90 102 49 89 104 49 87 106 49 86 107 49 85 109 50 83 111 50 82 114 50 81 116 51 80 118 51 78 121 52 77 123 52 76 126 53 75 130 54 74 133 55 73 137 56 72 142 57 71 149 59 71 158 62 0 0 0 0 0 0 0 0 0 0 0 0 0 0 0 0 0 0 0 0 0 0 0 0 0 0 0 0 0 0
 0 0 0 0 0 0 0 0 0 0 0 0 0 0 0 0 0 0 0 0 0 0 0 0 0 0 0 0 0 0 156 65 61 145 65 57 139 66 55 134 67 54 130 68 53 127 69 52 123 71 51 120 72 50 118 73 50 115 74 49 113 75 49 111 77 48 109 78 48 107 79 48 105 81 47 103 82 47 101 83 47 99 84 47 98 86 47 96 87 47 95 89 47 93 90 47 92 92 46 90 93 47 89 95 47 87 96 47 86 98 47 84 99 47 83 101 47 82 103 47 81 105 47 79 107 48 78 109 48 77 111 48 75 113 49 74 115 49 73 118 50 72 120 50 71 123 51 69 127 52 68 130 53 67 134 54 66 139 55 65 145 57 65 156 61 0 0 0 0 0 0 0 0 0 0 0 0 0 0 0 0 0 0 0 0 0 0 0 0 0 0 0
 0 0 0 0 0 0 0 0 0 0 0 0 0 0 0 0 0 0 0 0 0 0 0 0 0 0 0 157 60 60 143 59 56 136 60 54 131 61 52 127 63 51 124 64 50 121 65 49 118 66 49 115 68 48 113 69 47 110 70 47 108 71 47 106 73 46 104 74 46 102 75 46 100 77 45 99 78 45 97 79 45 95 80 45 94 82 45 92 83 45 90 85 44 89 86 44 87 87 44 86 89 44 85 90 44 83 92 45 82 94 45 80 95 45 79 97 45 78 99 45 77 100 45 75 102 46 74 104 46 73 106 46 71 108 47 70 110 47 69 113 47 68 115 48 66 118 49 65 121 49 64 124 50 63 127 51 61 131 52 60 136 54 59 143 56 60 157 60 0 0 0 0 0 0 0 0 0 0 0 0 0 0 0 0 0 0 0 0 0 0 0 0
 0 0 0 0 0 0 0 0 0 0 0 0 0 0 0 0 0 0 0 0 0 0 0 0 0 0 0 141 54 54 134 54 52 129 55 50 125 56 49 121 58 48 118 59 47 115 61 47 112 62 46 110 63 46 108 65 45 105 66 45 103 67 44 101 69 44 100 70 44 98 71 43 96 73 43 94 74 43 93 75 43 91 77 43 89 78 43 88 79 43 86 81 42 85 82 42 84 84 42 82 85 42 81 86 42 79 88 43 78 89 43 77 91 43 75 93 43 74 94 43 73 96 43 71 98 43 70 100 44 69 101 44 67 103 44 66 105 45 65 108 45 63 110 46 62 112 46 61 115 47 59 118 47 58 121 48 56 125 49 55 129 50 54 134 52 54 141 54 0 0 0 0 0 0 0 0 0 0 0 0 0 0 0 0 0 0 0 0 0 0 0 0
 0 0 0 0 0 0 0 0 0 0 0 0 0 0 0 0 0 0 0 0 0 0 0 0 140 54 54 132 51 51 126 49 49 122 50 47 118 52 46 115 53 46 112 55 45 110 56 44 107 58 44 105 59 43 103 61 43 101 62 43 99 63 42 97 65 42 95 66 42 94 67 41 92 69 41 90 70 41 89 71 41 87 73 41 86 74 41 84 76 41 83 77 41 81 78 40 80 80 40 78 81 40 77 83 41 76 84 41 74 86 41 73 87 41 71 89 41 70 90 41 69 92 41 67 94 41 66 95 42 65 97 42 63 99 42 62 101 43 61 103 43 59 105 43 58 107 44 56 110 44 55 112 45 53 115 46 52 118 46 50 122 47 49 126 49 51 132 51 54 140 54 0 0 0 0 0 0 0 0 0 0 0 0 0 0 0 0 0 0 0 0 0
 0 0 0 0 0 0 0 0 0 0 0 0 0 0 0 0 0 0 0 0 0 0 0 0 130 50 50 124 48 48 120 46 46 116 45 45 113 47 44 110 49 43 107 50 43 105 52 42 103 53 42 101 55 41 99 56 41 97 58 40 95 59 40 93 61 40 91 62 40 90 64 39 88 65 39 86 66 39 85 68 39 83 69 39 82 70 39 80 72 39 79 73 39 77 75 39 76 76 39 75 77 39 73 79 39 72 80 39 70 82 39 69 83 39 68 85 39 66 86 39 65 88 39 64 90 39 62 91 40 61 93 40 59 95 40 58 97 40 56 99 41 55 101 41 53 103 42 52 105 42 50 107 43 49 110 43 47 113 44 45 116 45 46 120 46 48 124 48 50 130 50 0 0 0 0 0 0 0 0 0 0 0 0 0 0 0 0 0 0 0 0 0
 0 0 0 0 0 0 0 0 0 0 0 0 0 0 0 0 0 0 0 0 0 129 50 50 123 47 47 118 45 45 114 44 44 111 43 43 108 42 41 105 44 41 103 46 40 100 47 40 98 49 39 96 51 39 94 52 39 92 54 38 91 55 38 89 57 38 87 58 38 86 60 37 84 61 37 82 62 37 81 64 37 79 65 37 78 67 37 76 68 37 75 69 37 74 71 37 72 72 37 71 74 37 69 75 37 68 76 37 67 78 37 65 79 37 64 81 37 62 82 37 61 84 37 60 86 37 58 87 38 57 89 38 55 91 38 54 92 38 52 94 39 51 96 39 49 98 39 47 100 40 46 103 40 44 105 41 42 108 41 43 111 43 44 114 44 45 118 45 47 123 47 50 129 50 0 0 0 0 0 0 0 0 0 0 0 0 0 0 0 0 0 0
 0 0 0 0 0 0 0 0 0 0 0 0 0 0 0 0 0 0 0 0 0 121 47 47 116 45 45 112 43 43 109 42 42 106 41 41 103 39 39 100 39 39 98 41 38 96 43 38 94 45 37 92 46 37 90 48 37 88 50 36 87 51 36 85 53 36 83 54 36 82 56 35 80 57 35 79 59 35 77 60 35 76 61 35 74 63 35 73 64 35 71 66 35 70 67 35 68 68 35 67 70 35 66 71 35 64 73 35 63 74 35 61 76 35 60 77 35 59 79 35 57 80 35 56 82 35 54 83 36 53 85 36 51 87 36 50 88 36 48 90 37 46 92 37 45 94 37 43 96 38 41 98 38 39 100 39 39 103 39 41 106 41 42 109 42 43 112 43 45 116 45 47 121 47 0 0 0 0 0 0 0 0 0 0 0 0 0 0 0 0 0 0
 0 0 0 0 0 0 0 0 0 0 0 0 0 0 0 0 0 0 121 46 46 115 44 44 110 42 42 107 41 41 104 40 40 101 39 39 98 38 38 96 37 37 94 36 36 92 38 35 90 40 35 88 42 35 86 43 35 84 45 34 83 47 34 81 49 34 79 50 34 78 52 34 76 53 33 75 55 33 73 56 33 72 58 33 70 59 33 69 61 33 68 62 33 66 63 33 65 65 33 63 66 33 62 68 33 61 69 33 59 70 33 58 72 33 56 73 33 55 75 33 53 76 33 52 78 34 50 79 34 49 81 34 47 83 34 45 84 34 43 86 35 42 88 35 40 90 35 38 92 35 36 94 36 37 96 37 38 98 38 39 101 39 40 104 40 41 107 41 42 110 42 44 115 44 46 121 46 0 0 0 0 0 0 0 0 0 0 0 0 0 0 0
 0 0 0 0 0 0 0 0 0 0 0 0 0 0 0 0 0 0 113 44 44 109 42 42 105 40 40 102 39 39 99 38 38 96 37 37 94 36 36 92 35 35 89 34 34 87 34 34 85 35 33 84 37 33 82 39 33 80 41 32 79 42 32 77 44 32 76 46 32 74 48 32 73 49 31 71 51 31 70 52 31 68 54 31 67 55 31 65 57 31 64 58 31 62 60 31 61 61 31 60 62 31 58 64 31 57 65 31 55 67 31 54 68 31 52 70 31 51 71 31 49 73 31 48 74 32 46 76 32 44 77 32 42 79 32 41 80 32 39 82 33 37 84 33 35 85 33 34 87 34 34 89 34 35 92 35 36 94 36 37 96 37 38 99 38 39 102 39 40 105 40 42 109 42 44 113 44 0 0 0 0 0 0 0 0 0 0 0 0 0 0 0
 0 0 0 0 0 0 0 0 0 0 0 0 0 0 0 113 44 44 107 41 41 103 40 40 100 38 38 97 37 37 94 36 36 92 35 35 90 34 34 88 34 34 86 33 33 84 32 32 82 31 31 80 31 31 78 34 30 77 36 30 75 38 30 73 40 30 72 41 30 70 43 30 69 45 29 67 47 29 66 48 29 64 50 29 63 51 29 62 53 29 60 54 29 59 56 29 57 57 29 56 59 29 54 60 29 53 62 29 51 63 29 50 64 29 48 66 29 47 67 29 45 69 29 43 70 30 41 72 30 40 73 30 38 75 30 36 77 30 34 78 30 31 80 31 31 82 31 32 84 32 33 86 33 34 88 34 34 90 34 35 92 35 36 94 36 37 97 37 38 100 38 40 103 40 41 107 41 44 113 44 0 0 0 0 0 0 0 0 0 0 0 0
 0 0 0 0 0 0 0 0 0 0 0 0 0 0 0 106 41 41 102 39 39 98 38 38 95 37 37 93 36 36 90 35 35 88 34 34 86 33 33 84 32 32 82 31 31 80 31 31 78 30 30 76 29 29 74 28 28 73 30 28 71 33 28 70 35 28 68 37 28 67 39 28 65 40 27 64 42 27 62 44 27 61 46 27 59 47 27 58 49 27 56 50 27 55 52 27 53 53 27 52 55 27 50 56 27 49 58 27 47 59 27 46 61 27 44 62 27 42 64 27 40 65 27 39 67 28 37 68 28 35 70 28 33 71 28 30 73 28 28 74 28 29 76 29 30 78 30 31 80 31 31 82 31 32 84 32 33 86 33 34 88 34 35 90 35 36 93 36 37 95 37 38 98 38 39 102 39 41 106 41 0 0 0 0 0 0 0 0 0 0 0 0
 0 0 0 0 0 0 0 0 0 0 0 0 0 0 0 100 39 39 96 37 37 93 36 36 91 35 35 88 34 34 86 33 33 84 32 32 82 31 31 80 31 31 78 30 30 76 29 29 74 28 28 72 28 28 71 27 27 69 26 26 67 27 26 66 29 26 64 32 26 63 34 26 61 36 25 60 38 25 58 39 25 57 41 25 55 43 25 54 45 25 52 46 25 51 48 25 49 49 25 48 51 25 46 52 25 45 54 25 43 55 25 41 57 25 39 58 25 38 60 25 36 61 25 34 63 26 32 64 26 29 66 26 27 67 26 26 69 26 27 71 27 28 72 28 28 74 28 29 76 29 30 78 30 31 80 31 31 82 31 32 84 32 33 86 33 34 88 34 35 91 35 36 93 36 37 96 37 39 100 39 0 0 0 0 0 0 0 0 0 0 0 0
 0 0 0 0 0 0 0 0 0 0 0 0 0 0 0 95 36 36 92 35 35 89 34 34 86 33 33 84 32 32 82 31 31 80 31 31 78 30 30 76 29 29 74 28 28 72 28 28 71 27 27 69 26 26 67 26 26 65 25 25 64 24 24 62 24 24 60 26 24 59 28 23 57 30 23 56 33 23 55 35 23 53 37 23 52 38 23 50 40 23 48 42 23 47 44 23 45 45 23 44 47 23 42 48 23 40 50 23 38 52 23 37 53 23 35 55 23 33 56 23 30 57 23 28 59 23 26 60 24 24 62 24 24 64 24 25 65 25 26 67 26 26 69 26 27 71 27 28 72 28 28 74 28 29 76 29 30 78 30 31 80 31 31 82 31 32 84 32 33 86 33 34 89 34 35 92 35 36 95 36 0 0 0 0 0 0 0 0 0 0 0 0
 0 0 0 0 0 0 0 0 0 0 0 0 94 36 36 90 34 34 87 33 33 84 32 32 82 31 31 80 31 31 78 30 30 76 29 29 74 28 28 72 28 28 70 27 27 69 26 26 67 26 26 65 25 25 64 24 24 62 24 24 60 23 23 58 22 22 57 22 22 55 22 21 54 24 21 52 27 21 51 29 21 49 31 21 47 34 21 46 35 21 44 37 21 43 39 21 41 41 21 39 43 21 37 44 21 35 46 21 34 47 21 31 49 21 29 51 21 27 52 21 24 54 21 22 55 21 22 57 22 22 58 22 23 60 23 24 62 24 24 64 24 25 65 25 26 67 26 26 69 26 27 70 27 28 72 28 28 74 28 29 76 29 30 78 30 31 80 31 31 82 31 32 84 32 33 87 33 34 90 34 36 94 36 0 0 0 0 0 0 0 0 0
 0 0 0 0 0 0 0 0 0 0 0 0 88 34 34 85 33 33 82 32 32 80 31 31 78 30 30 76 29 29 74 28 28 72 28 28 70 27 27 68 26 26 67 26 26 65 25 25 63 24 24 62 24 24 60 23 23 58 22 22 57 22 22 55 21 21 53 20 20 51 20 20 50 19 19 48 20 19 46 23 19 45 26 19 43 28 19 41 30 19 40 32 19 38 34 19 36 36 19 34 38 19 32 40 19 30 41 19 28 43 19 26 45 19 23 46 19 20 48 19 19 50 19 20 51 20 20 53 20 21 55 21 22 57 22 22 58 22 23 60 23 24 62 24 24 63 24 25 65 25 26 67 26 26 68 26 27 70 27 28 72 28 28 74 28 29 76 29 30 78 30 31 80 31 32 82 32 33 85 33 34 88 34 0 0 0 0 0 0 0 0 0
 0 0 0 0 0 0 0 0 0 0 0 0 83 32 32 80 31 31 78 30 30 76 29 29 74 28 28 72 28 28 70 27 27 68 26 26 66 25 25 65 25 25 63 24 24 61 24 24 60 23 23 58 22 22 56 22 22 55 21 21 53 20 20 51 20 20 49 19 19 48 18 18 46 18 18 44 17 17 42 17 17 40 19 16 39 22 16 37 24 16 35 27 16 33 29 16 31 31 16 29 33 16 27 35 16 24 37 16 22 39 16 19 40 16 17 42 17 17 44 17 18 46 18 18 48 18 19 49 19 20 51 20 20 53 20 21 55 21 22 56 22 22 58 22 23 60 23 24 61 24 24 63 24 25 65 25 25 66 25 26 68 26 27 70 27 28 72 28 28 74 28 29 76 29 30 78 30 31 80 31 32 83 32 0 0 0 0 0 0 0 0 0
 0 0 0 0 0 0 0 0 0 0 0 0 78 30 30 76 29 29 73 28 28 72 27 27 70 27 27 68 26 26 66 25 25 64 25 25 63 24 24 61 23 23 59 23 23 58 22 22 56 22 22 54 21 21 52 20 20 51 20 20 49 19 19 47 18 18 46 18 18 44 17 17 42 16 16 40 16 16 38 15 15 36 14 14 34 14 14 32 17 14 30 20 14 27 23 14 25 25 14 23 27 14 20 30 14 17 32 14 14 34 14 14 36 14 15 38 15 16 40 16 16 42 16 17 44 17 18 46 18 18 47 18 19 49 19 20 51 20 20 52 20 21 54 21 22 56 22 22 58 22 23 59 23 23 61 23 24 63 24 25 64 25 25 66 25 26 68 26 27 70 27 27 72 27 28 73 28 29 76 29 30 78 30 0 0 0 0 0 0 0 0 0
 0 0 0 0 0 0 0 0 0 0 0 0 73 28 28 71 27 27 69 27 27 67 26 26 65 25 25 64 24 24 62 24 24 60 23 23 59 23 23 57 22 22 55 21 21 54 21 21 52 20 20 50 19 19 49 19 19 47 18 18 45 18 18 43 17 17 41 16 16 40 16 16 38 15 15 36 14 14 33 14 14 31 13 13 29 12 12 26 12 12 23 11 11 21 14 11 18 18 11 14 21 11 11 23 11 12 26 12 12 29 12 13 31 13 14 33 14 14 36 14 15 38 15 16 40 16 16 41 16 17 43 17 18 45 18 18 47 18 19 49 19 19 50 19 20 52 20 21 54 21 21 55 21 22 57 22 23 59 23 23 60 23 24 62 24 24 64 24 25 65 25 26 67 26 27 69 27 27 71 27 28 73 28 0 0 0 0 0 0 0 0 0
 0 0 0 0 0 0 0 0 0 0 0 0 68 26 26 66 25 25 65 25 25 63 24 24 61 24 24 60 23 23 58 22 22 56 22 22 55 21 21 53 20 20 51 20 20 50 19 19 48 19 19 46 18 18 45 17 17 43 17 17 41 16 16 39 16 16 37 15 15 35 14 14 33 14 14 31 13 13 28 12 12 26 11 11 23 11 11 20 10 10 17 9 9 13 8 8 0 0 0 8 13 8 9 17 9 10 20 10 11 23 11 11 26 11 12 28 12 13 31 13 14 33 14 14 35 14 15 37 15 16 39 16 16 41 16 17 43 17 17 45 17 18 46 18 19 48 19 19 50 19 20 51 20 20 53 20 21 55 21 22 56 22 22 58 22 23 60 23 24 61 24 24 63 24 25 65 25 25 66 25 26 68 26 0 0 0 0 0 0 0 0 0
 0 0 0 0 0 0 0 0 0 0 0 0 63 24 24 62 24 24 60 23 23 59 23 23 57 22 22 55 21 21 54 21 21 52 20 20 51 20 20 49 19 19 47 18 18 46 18 18 44 17 17 42 17 17 40 16 16 38 15 15 37 15 15 35 14 14 32 13 13 30 13 13 28 12 12 25 11 11 23 11 11 20 10 10 16 9 9 12 8 8 0 0 0 0 0 0 0 0 0 0 0 0 0 0 0 8 12 8 9 16 9 10 20 10 11 23 11 11 25 11 12 28 12 13 30 13 13 32 13 14 35 14 15 37 15 15 38 15 16 40 16 17 42 17 17 44 17 18 46 18 18 47 18 19 49 19 20 51 20 20 52 20 21 54 21 21 55 21 22 57 22 23 59 23 23 60 23 24 62 24 24 63 24 0 0 0 0 0 0 0 0 0
 0 0 0 0 0 0 0 0 0 0 0 0 58 22 22 57 22 22 56 21 21 54 21 21 53 20 20 51 20 20 50 19 19 48 19 19 48 21 19 45 18 18 43 18 17 42 17 17 43 21 17 41 20 17 36 15 15 38 20 16 37 20 15 30 14 13 28 13 12 31 19 14 23 12 11 21 12 10 25 19 12 22 19 12 10 10 8 10 10 8 10 10 8 10 10 8 10 10 8 19 19 11 19 20 11 19 20 11 18 20 11 10 14 9 11 17 10 19 27 13 19 29 13 13 26 12 19 33 14 20 35 15 14 33 14 15 35 14 20 40 16 16 38 15 17 40 16 21 44 18 21 46 18 21 47 19 19 47 18 19 48 19 19 50 19 20 51 20 20 53 20 21 54 21 21 56 21 22 57 22 22 58 22 0 0 0 0 0 0 0 0 0
 0 0 0 0 0 0 0 0 0 0 0 0 52 20 20 52 21 20 51 20 20 53 24 21 49 20 19 52 25 21 51 25 20 45 19 18 43 18 17 42 18 17 40 17 16 38 17 16 37 17 15 45 27 19 44 27 19 31 15 13 29 15 13 27 15 12 25 14 12 22 14 11 36 29 17 35 29 17 33 30 16 14 13 9 33 31 17 33 31 17 33 32 17 14 14 9 14 14 9 32 33 17 14 14 9 13 14 9 13 14 9 30 33 17 13 14 9 13 16 10 14 20 10 29 38 17 28 39 18 28 40 18 28 42 18 27 43 18 16 33 14 16 35 14 27 46 19 26 47 19 26 47 20 26 48 20 25 49 20 25 50 20 19 46 18 19 47 19 25 52 21 20 50 19 24 54 21 23 54 21 20 52 20 0 0 0 0 0 0 0 0 0
 0 0 0 0 0 0 0 0 0 0 0 0 47 19 18 47 19 19 52 26 21 53 27 21 45 19 18 53 29 22 53 30 22 53 30 22 53 31 22 53 32 22 53 33 22 52 33 22 52 34 22 52 34 22 31 17 13 29 17 13 27 17 12 49 37 22 22 16 11 20 16 11 47 39 22 19 16 11 19 17 11 46 41 22 19 17 11 46 42 22 19 18 11 45 44 23 18 18 11 18 18 11 43 45 22 17 19 11 42 46 22 17 19 11 40 47 22 40 47 22 16 19 11 38 47 22 38 48 22 16 25 12 36 50 22 36 50 22 35 51 22 17 33 14 17 34 14 18 36 15 18 37 15 18 39 16 18 40 16 19 41 17 19 43 17 19 44 17 28 53 22 19 46 18 19 47 18 25 52 21 23 49 20 0 0 0 0 0 0 0 0 0
 15 13 9 35 29 17 15 13 9 37 31 18 45 23 18 42 18 17 52 30 22 54 31 22 41 19 17 40 19 16 57 35 24 38 19 16 37 19 15 36 19 15 35 19 15 33 19 14 32 19 14 30 19 14 59 42 26 27 18 13 58 44 26 23 18 12 23 19 12 58 47 27 23 19 12 23 20 12 57 49 27 57 50 27 23 21 12 23 21 12 55 53 27 22 22 12 54 54 27 53 55 27 21 22 12 52 56 27 51 56 27 20 23 12 20 23 12 49 57 27 48 58 27 19 23 12 46 58 26 45 57 26 18 25 12 43 58 26 18 29 13 42 59 26 41 59 26 40 59 26 39 59 25 38 59 25 37 58 25 36 58 24 19 39 16 34 56 24 33 55 23 19 42 17 19 42 17 27 50 21 17 40 16 13 15 10 30 36 17 13 15 9
 19 15 10 19 16 11 47 39 22 49 40 23 20 17 11 49 30 21 38 18 15 56 35 24 37 19 15 60 38 26 62 40 26 63 41 27 35 19 15 64 43 28 32 20 14 31 20 14 66 47 29 28 20 13 65 49 29 27 20 13 66 51 30 27 21 13 66 53 30 27 22 13 66 55 31 66 56 31 26 23 13 65 57 31 26 24 13 64 59 31 63 60 31 25 25 14 62 62 31 61 62 31 24 26 13 24 26 13 58 64 31 23 26 13 57 65 31 23 27 13 22 27 13 54 66 31 21 27 13 52 66 30 21 27 13 50 66 30 20 27 13 48 65 29 20 30 14 46 65 29 45 65 28 20 34 15 42 64 27 19 35 15 19 36 15 19 37 15 37 58 25 19 38 16 33 53 22 17 37 15 41 50 23 16 20 11 16 19 11 38 46 22
 23 19 12 24 19 12 59 47 27 61 48 28 25 20 13 30 16 13 32 17 14 58 38 25 33 19 14 33 19 14 65 44 28 67 45 29 68 47 30 31 20 14 30 20 14 28 21 13 71 52 31 29 21 14 72 54 32 72 55 33 73 56 33 29 23 14 29 24 14 72 59 34 29 24 14 72 61 34 71 62 34 29 25 14 28 26 14 69 65 34 69 66 34 28 27 14 67 67 34 66 68 34 27 28 14 26 28 14 64 70 34 63 71 34 25 29 14 25 29 14 60 72 34 24 29 14 58 72 33 57 73 33 23 29 14 22 29 14 22 29 14 53 71 32 21 29 14 50 70 31 49 70 31 48 69 30 20 32 14 20 32 14 20 33 14 42 63 27 41 61 26 18 33 14 36 54 23 32 48 21 50 62 28 20 25 12 19 24 12 46 58 27
 28 22 14 28 22 14 72 56 33 73 57 33 30 24 14 45 33 20 26 17 12 59 41 26 29 19 13 29 19 13 29 20 13 70 49 31 71 51 31 73 52 32 30 22 14 30 22 14 31 23 14 76 57 34 77 58 35 77 59 35 77 60 35 77 61 35 31 25 15 31 26 15 31 26 15 31 26 15 75 66 36 75 67 36 30 28 15 30 28 15 73 70 36 72 71 36 29 29 15 29 29 15 28 30 15 69 74 36 68 74 36 27 30 15 27 31 15 65 76 36 64 76 36 63 77 36 62 77 36 25 31 15 24 31 15 24 31 15 24 31 15 23 31 15 56 76 34 55 75 33 53 74 33 21 29 14 21 29 14 20 28 13 48 68 30 46 66 29 44 63 28 18 28 13 38 54 24 15 20 11 58 74 34 23 29 14 23 29 14 55 70 32
 32 25 15 33 25 15 83 64 38 85 65 38 86 67 39 44 34 20 56 41 25 25 18 12 27 19 13 69 49 30 72 51 31 30 21 14 75 54 33 31 23 14 78 57 35 79 58 35 32 24 15 32 25 15 32 25 15 33 25 15 80 64 37 80 65 37 32 27 16 80 67 37 79 68 37 32 28 16 32 28 16 78 70 38 77 71 38 77 72 38 31 30 16 30 30 16 75 75 38 74 75 38 73 76 38 29 31 16 29 31 16 29 32 16 70 79 38 69 79 38 27 32 16 27 32 16 66 80 37 26 32 15 26 33 15 63 80 37 62 80 36 61 80 36 59 79 36 24 32 15 23 32 15 56 77 34 22 31 14 53 74 32 21 29 14 20 28 13 47 66 29 44 61 27 17 23 11 14 18 10 27 35 16 26 34 16 26 34 16 63 82 37
 37 28 17 38 29 17 94 72 43 96 73 43 39 30 18 40 31 18 57 42 26 64 46 28 69 49 30 29 21 14 30 22 14 31 22 14 32 23 15 32 24 15 33 24 15 33 25 15 82 62 37 82 63 37 82 64 38 33 26 16 33 27 16 33 27 16 33 28 16 33 28 16 82 70 39 81 71 39 81 72 39 32 30 16 32 30 16 32 30 16 78 75 39 78 76 39 31 31 16 31 31 16 31 32 16 75 79 39 74 80 39 73 80 39 29 33 16 29 33 16 28 33 16 69 82 39 68 82 38 67 82 38 66 83 38 65 83 38 26 33 16 26 33 16 25 33 15 61 81 36 60 81 36 58 79 35 57 78 35 55 77 34 54 75 33 52 72 32 20 28 13 19 26 13 17 23 12 76 99 45 75 97 44 30 39 18 29 38 18 71 93 42
 41 31 19 103 78 46 104 79 47 106 81 48 44 33 20 44 34 20 23 18 12 66 48 29 29 21 14 74 54 33 31 23 14 79 58 35 32 24 15 81 61 36 82 62 37 83 63 37 83 64 38 84 65 38 34 27 16 34 27 16 84 69 39 84 70 39 84 71 39 34 29 16 34 29 16 83 73 40 33 30 16 33 30 16 33 31 17 81 76 40 80 77 40 79 78 40 32 32 17 32 32 17 31 32 17 31 33 17 76 81 40 75 82 40 74 82 40 30 33 16 72 83 40 71 83 39 29 34 16 28 34 16 28 34 16 68 84 39 67 84 38 26 34 16 26 34 16 26 34 16 25 33 15 25 33 15 59 80 36 23 32 15 56 77 34 22 30 14 51 71 31 20 27 13 43 57 26 83 109 49 82 107 49 33 43 20 32 42 19 31 42 19
 45 34 20 112 84 50 114 86 51 115 87 52 116 89 53 48 36 22 48 37 22 27 20 13 72 53 32 75 55 33 32 23 15 32 24 15 33 25 15 83 62 37 34 26 16 34 26 16 34 27 16 34 27 16 34 28 16 85 69 39 85 70 40 85 71 40 34 29 17 34 30 17 34 30 17 34 30 17 83 76 40 83 76 40 82 77 41 33 32 17 33 32 17 33 32 17 80 80 41 79 81 41 79 81 41 78 82 41 31 33 17 31 34 17 31 34 17 75 84 40 74 84 40 73 85 40 72 85 40 29 34 17 28 34 16 28 34 16 68 85 39 67 85 39 66 85 39 65 84 38 64 83 38 25 33 16 61 81 36 59 80 36 57 78 35 22 30 14 21 29 14 49 66 29 92 119 54 90 118 53 36 47 21 35 47 21 35 46 21 34 46 21
 48 36 22 49 37 22 122 92 55 123 93 56 124 95 56 126 96 57 51 40 23 64 49 29 29 22 14 76 56 34 79 59 35 33 25 15 33 25 15 83 64 38 34 26 16 85 66 39 85 67 39 35 28 16 86 70 40 86 71 40 86 72 40 35 29 17 35 30 17 35 30 17 34 30 17 85 76 41 84 77 41 84 78 41 83 78 41 33 32 17 33 32 17 33 33 17 81 81 41 80 82 41 80 82 41 79 83 41 32 34 17 31 34 17 31 34 17 31 34 17 75 85 41 74 85 41 73 85 40 73 86 40 29 35 17 29 35 17 28 35 16 69 86 39 27 35 16 27 34 16 65 84 38 26 34 16 62 82 37 61 81 36 24 32 15 23 31 14 54 72 32 20 26 13 98 127 58 39 51 23 38 50 23 38 50 23 37 49 22 91 120 54
 51 38 23 52 39 23 52 40 24 53 40 24 131 100 59 132 102 60 133 103 61 55 42 25 71 54 32 31 23 14 79 60 35 81 62 36 82 63 37 84 65 38 34 27 16 85 67 39 86 69 39 35 28 16 35 29 17 86 72 40 86 73 40 35 30 17 35 30 17 35 30 17 85 76 41 85 77 41 85 78 41 84 78 41 34 32 17 34 32 17 34 33 17 33 33 17 82 82 41 81 82 41 80 83 41 80 83 41 79 84 41 32 34 17 31 34 17 31 34 17 31 35 17 75 86 41 74 86 41 74 86 41 29 35 17 29 35 17 71 86 40 70 86 40 28 35 16 27 34 16 66 84 38 26 34 16 26 33 16 25 33 15 24 32 15 57 76 34 22 29 14 105 134 61 42 54 25 41 54 24 41 53 24 99 130 59 98 129 58 96 128 57
 54 40 24 134 101 60 135 103 61 136 104 62 137 105 62 56 43 25 56 44 26 57 44 26 27 21 13 75 57 34 32 24 15 33 25 15 33 26 16 34 27 16 34 27 16 85 68 39 35 28 16 35 29 17 35 29 17 35 29 17 86 73 41 35 30 17 35 30 17 35 31 17 86 77 41 85 78 41 85 78 42 85 79 42 34 32 17 34 33 17 34 33 17 34 33 17 82 82 42 82 83 42 81 83 42 80 84 42 80 84 42 32 34 17 32 34 17 31 35 17 31 35 17 76 86 41 75 86 41 74 86 41 30 35 17 73 86 40 72 86 40 71 86 40 69 86 40 28 34 16 67 84 39 66 83 38 64 82 37 62 81 37 60 78 35 23 30 14 52 67 31 109 140 64 108 139 63 107 138 63 43 56 25 42 55 25 42 55 25 41 54 24
 56 42 25 57 43 25 57 43 26 141 108 64 142 110 65 143 111 65 144 112 66 145 114 66 59 47 27 29 23 14 77 60 35 32 25 15 33 26 16 34 27 16 34 27 16 34 28 16 85 70 40 35 29 17 35 29 17 86 73 41 86 74 41 86 75 41 86 76 41 35 31 17 86 77 41 85 78 42 85 79 42 85 80 42 34 32 17 34 33 17 34 33 17 34 33 17 83 83 42 82 83 42 81 84 42 81 84 42 80 84 42 32 34 17 32 34 17 32 35 17 31 35 17 77 86 41 31 35 17 30 35 17 30 35 17 30 35 17 72 86 40 71 86 40 28 35 16 69 85 39 67 84 39 66 83 38 64 82 37 62 80 36 24 31 15 56 72 33 115 145 67 46 59 27 46 58 27 45 58 26 45 58 26 44 57 26 107 140 64 106 140 63
 58 44 26 144 110 65 145 111 66 146 113 66 147 114 67 147 115 67 60 47 27 60 48 28 61 48 28 26 21 13 30 24 15 79 62 36 81 64 37 83 66 38 34 27 16 85 69 39 85 70 40 86 71 40 35 29 17 86 74 41 86 74 41 86 75 41 86 76 41 35 31 17 35 31 17 35 32 17 34 32 17 34 32 17 34 33 17 34 33 17 34 33 17 34 33 17 83 83 42 82 83 42 82 84 42 81 84 42 81 85 42 80 85 42 79 85 42 79 85 42 78 86 42 77 86 41 31 35 17 30 35 17 30 35 17 30 35 17 73 86 40 29 35 17 28 34 16 28 34 16 68 84 39 27 33 16 26 33 16 25 32 15 59 75 34 51 64 29 119 149 69 118 149 68 116 148 68 47 60 27 46 60 27 46 59 27 45 59 27 45 59 26
 60 46 27 60 46 27 60 47 27 61 47 28 61 48 28 151 119 69 151 120 70 152 121 70 0 0 0 0 0 0 70 56 32 31 25 15 32 26 15 82 66 38 83 68 38 84 69 39 85 71 40 85 72 40 35 29 17 86 74 41 86 75 41 86 76 41 35 31 17 35 31 17 35 32 17 35 32 17 34 32 17 85 80 42 84 81 42 84 81 42 84 82 42 83 82 42 34 34 17 33 34 17 33 34 17 33 34 17 33 34 17 32 34 17 79 85 42 79 85 42 78 86 42 77 86 41 76 86 41 31 35 17 30 35 17 30 35 17 73 85 40 29 34 17 29 34 16 28 34 16 27 34 16 27 33 16 64 80 37 61 77 35 23 28 14 0 0 0 0 0 0 49 62 28 49 62 28 48 61 28 117 150 69 116 150 68 115 149 68 114 148 67
 61 47 28 62 48 28 62 48 28 153 120 70 153 121 70 154 122 71 154 123 71 155 124 71 0 0 0 0 0 0 0 0 0 73 59 34 31 26 15 32 27 16 33 27 16 34 28 16 84 70 39 84 72 40 34 29 17 34 30 17 35 30 17 85 76 41 35 31 17 35 31 17 35 32 17 34 32 17 34 32 17 85 80 42 84 81 42 84 81 42 84 82 42 83 82 42 34 34 17 33 34 17 33 34 17 33 34 17 33 34 17 32 34 17 79 85 42 79 85 42 78 85 41 77 85 41 76 85 41 31 35 17 75 85 41 74 85 40 73 85 40 29 34 16 29 34 16 69 83 39 67 82 38 66 80 37 63 78 36 24 29 14 0 0 0 0 0 0 0 0 0 50 63 29 50 63 29 49 63 29 49 62 28 48 62 28 118 152 69 117 152 69
 62 48 28 154 120 70 155 121 71 156 123 71 156 124 72 156 125 72 157 126 72 0 0 0 0 0 0 0 0 0 0 0 0 0 0 0 74 61 34 32 26 15 33 27 16 33 28 16 34 28 16 34 29 16 34 29 17 34 30 17 34 30 17 34 31 17 85 76 41 34 31 17 34 32 17 34 32 17 34 32 17 84 80 42 84 81 42 84 81 42 83 82 42 83 82 42 33 33 17 33 34 17 33 34 17 33 34 17 33 34 17 32 34 17 79 85 42 79 85 42 78 85 41 77 85 41 31 34 17 76 85 41 75 85 41 74 84 40 73 84 40 71 84 39 70 83 39 69 82 38 67 80 38 64 78 36 25 30 15 0 0 0 0 0 0 0 0 0 0 0 0 0 0 0 51 64 29 51 64 29 50 63 29 50 63 29 49 63 29 49 63 28
 64 49 29 64 50 29 64 50 29 64 51 29 64 51 29 159 127 73 159 129 74 0 0 0 0 0 0 0 0 0 0 0 0 0 0 0 0 0 0 0 0 0 78 65 37 32 27 16 33 28 16 83 71 39 34 29 16 34 30 17 34 30 17 34 30 17 84 76 41 84 77 41 84 78 41 84 78 41 34 32 17 84 80 42 84 80 42 83 81 42 83 81 42 83 82 42 33 33 17 33 33 17 33 34 17 33 34 17 33 34 17 32 34 17 79 84 41 32 34 17 31 34 17 31 34 17 31 34 17 75 84 41 74 84 40 73 84 40 72 83 40 29 33 16 69 82 38 68 80 38 26 32 15 0 0 0 0 0 0 0 0 0 0 0 0 0 0 0 0 0 0 0 0 0 52 65 30 52 64 30 126 158 73 125 158 72 124 157 72 123 157 72
 64 50 29 65 51 29 65 51 30 65 52 30 160 129 74 160 130 74 161 131 75 0 0 0 0 0 0 0 0 0 0 0 0 0 0 0 0 0 0 0 0 0 0 0 0 0 0 0 80 68 38 81 70 38 82 71 39 83 73 39 34 30 17 83 75 40 84 76 40 84 77 41 84 77 41 84 78 41 83 79 41 34 32 17 34 32 17 34 33 17 33 33 17 33 33 17 82 82 42 81 82 42 81 83 42 80 83 41 80 83 41 79 83 41 32 34 17 32 34 17 31 34 17 31 34 17 31 34 17 30 34 17 74 83 40 29 33 16 29 33 16 28 33 16 28 32 16 0 0 0 0 0 0 0 0 0 0 0 0 0 0 0 0 0 0 0 0 0 0 0 0 0 0 0 53 65 30 53 65 30 52 65 30 128 160 74 127 159 73 125 159 73
 65 51 30 65 52 30 65 52 30 161 130 75 162 131 75 162 132 75 162 133 75 0 0 0 0 0 0 0 0 0 0 0 0 0 0 0 0 0 0 0 0 0 0 0 0 0 0 0 0 0 0 0 0 0 0 0 0 81 72 39 82 73 39 82 74 40 83 75 40 83 76 40 83 77 41 83 77 41 33 32 17 33 32 17 33 32 17 33 32 17 33 33 17 33 33 17 81 81 41 81 82 41 80 82 41 80 82 41 79 82 41 79 83 41 78 83 41 31 34 17 31 34 17 31 33 17 30 33 17 30 33 16 30 33 16 29 33 16 0 0 0 0 0 0 0 0 0 0 0 0 0 0 0 0 0 0 0 0 0 0 0 0 0 0 0 0 0 0 0 0 0 0 0 0 54 66 31 54 66 30 53 66 30 53 66 30 129 161 74 128 161 74
 66 52 30 162 130 75 162 131 75 163 132 75 163 133 76 163 134 76 66 55 31 66 55 31 0 0 0 0 0 0 0 0 0 0 0 0 0 0 0 0 0 0 0 0 0 0 0 0 0 0 0 0 0 0 0 0 0 0 0 0 0 0 0 0 0 0 33 30 16 82 75 40 82 76 40 82 77 40 33 31 17 33 32 17 33 32 17 33 32 17 33 32 17 33 32 17 81 81 41 80 81 41 80 81 41 79 81 41 79 82 41 78 82 41 77 82 40 31 33 17 31 33 17 30 33 16 74 81 39 0 0 0 0 0 0 0 0 0 0 0 0 0 0 0 0 0 0 0 0 0 0 0 0 0 0 0 0 0 0 0 0 0 0 0 0 0 0 0 0 0 0 136 163 77 135 163 76 54 66 31 54 66 31 54 66 31 53 66 30 53 66 30
 66 53 30 66 54 31 67 54 31 67 54 31 67 55 31 67 55 31 67 56 31 164 138 77 0 0 0 0 0 0 0 0 0 0 0 0 0 0 0 0 0 0 0 0 0 0 0 0 0 0 0 0 0 0 0 0 0 0 0 0 0 0 0 0 0 0 0 0 0 0 0 0 0 0 0 0 0 0 0 0 0 0 0 0 33 31 17 33 32 17 32 32 17 32 32 17 80 80 40 79 80 40 79 80 40 78 80 40 78 81 40 0 0 0 0 0 0 0 0 0 0 0 0 0 0 0 0 0 0 0 0 0 0 0 0 0 0 0 0 0 0 0 0 0 0 0 0 0 0 0 0 0 0 0 0 0 0 0 0 0 0 0 0 0 0 0 0 0 0 0 0 56 67 31 137 164 77 136 164 77 135 164 76 134 164 76 133 164 76 132 163 76
 67 54 31 67 54 31 67 55 31 67 55 31 67 55 31 67 56 31 165 138 78 165 139 78 165 140 78 165 141 78 0 0 0 0 0 0 0 0 0 0 0 0 0 0 0 0 0 0 0 0 0 0 0 0 0 0 0 0 0 0 0 0 0 0 0 0 0 0 0 0 0 0 0 0 0 0 0 0 0 0 0 0 0 0 0 0 0 0 0 0 0 0 0 0 0 0 0 0 0 0 0 0 0 0 0 0 0 0 0 0 0 0 0 0 0 0 0 0 0 0 0 0 0 0 0 0 0 0 0 0 0 0 0 0 0 0 0 0 0 0 0 0 0 0 0 0 0 0 0 0 0 0 0 0 0 0 0 0 0 0 0 0 0 0 0 57 67 32 57 67 32 57 67 31 56 67 31 137 165 77 136 165 77 135 165 77 135 165 77 134 164 76
 67 55 31 67 55 31 67 55 31 67 56 31 67 56 31 166 139 78 166 140 78 166 141 78 166 142 79 166 142 79 166 143 79 0 0 0 0 0 0 0 0 0 0 0 0 0 0 0 0 0 0 0 0 0 0 0 0 0 0 0 0 0 0 0 0 0 0 0 0 0 0 0 0 0 0 0 0 0 0 0 0 0 0 0 0 0 0 0 0 0 0 0 0 0 0 0 0 0 0 0 0 0 0 0 0 0 0 0 0 0 0 0 0 0 0 0 0 0 0 0 0 0 0 0 0 0 0 0 0 0 0 0 0 0 0 0 0 0 0 0 0 0 0 0 0 0 0 0 0 0 0 0 0 0 0 0 0 0 0 0 0 0 58 67 32 58 67 32 57 67 32 57 67 32 57 67 32 56 67 32 138 166 78 137 166 77 136 166 77 135 165 77
 67 55 31 68 56 31 68 56 31 68 56 32 166 139 78 167 140 78 167 141 79 167 142 79 167 143 79 167 144 79 166 144 79 166 145 80 166 146 80 68 60 32 0 0 0 0 0 0 0 0 0 0 0 0 0 0 0 0 0 0 0 0 0 0 0 0 0 0 0 0 0 0 0 0 0 0 0 0 0 0 0 0 0 0 0 0 0 0 0 0 0 0 0 0 0 0 0 0 0 0 0 0 0 0 0 0 0 0 0 0 0 0 0 0 0 0 0 0 0 0 0 0 0 0 0 0 0 0 0 0 0 0 0 0 0 0 0 0 0 0 0 0 0 0 0 0 0 0 0 0 0 0 0 147 166 80 59 68 32 59 68 32 59 68 32 58 68 32 58 68 32 58 68 32 57 68 32 57 68 32 57 68 32 138 166 78 138 166 78 137 166 77
 68 56 31 68 56 32 167 139 78 167 140 78 167 141 79 167 141 79 167 142 79 167 143 79 167 144 79 167 145 80 167 146 80 167 146 80 68 60 32 68 60 32 68 60 33 68 61 33 67 61 33 67 61 33 0 0 0 0 0 0 0 0 0 0 0 0 0 0 0 0 0 0 0 0 0 0 0 0 0 0 0 0 0 0 0 0 0 0 0 0 0 0 0 0 0 0 0 0 0 0 0 0 0 0 0 0 0 0 0 0 0 0 0 0 0 0 0 0 0 0 0 0 0 0 0 0 0 0 0 0 0 0 0 0 0 0 0 0 0 0 0 151 166 81 150 166 81 150 166 81 149 166 80 148 167 80 147 167 80 59 68 32 59 68 32 59 68 32 58 68 32 58 68 32 58 68 32 57 68 32 57 68 32 57 68 32 56 68 32 138 167 78
 68 56 32 167 139 78 167 140 79 168 141 79 168 142 79 168 143 79 168 143 79 68 59 32 68 59 32 68 59 32 68 60 32 167 147 80 167 148 80 167 149 81 167 150 81 167 150 81 166 151 81 166 152 81 166 153 81 166 153 81 165 154 81 67 63 33 67 63 33 67 63 33 67 64 33 67 64 33 66 64 33 66 64 33 66 65 33 66 65 33 66 65 33 66 65 33 161 161 82 160 161 82 160 162 82 159 162 82 159 163 82 158 163 82 158 163 82 157 164 82 156 164 82 156 165 82 155 165 82 155 165 81 63 67 33 62 67 33 62 67 33 62 68 33 61 68 33 61 68 33 61 68 33 61 68 33 60 68 33 60 68 32 147 167 80 146 167 80 145 167 80 144 168 80 58 68 32 58 68 32 58 68 32 57 68 32 57 68 32 57 68 32
 68 57 32 68 57 32 68 57 32 68 58 32 68 58 32 68 58 32 68 59 32 68 59 32 68 59 32 68 60 32 168 148 80 168 148 81 167 149 81 167 150 81 167 151 81 167 151 81 167 152 81 167 153 81 166 153 81 166 154 82 166 155 82 67 63 33 67 63 33 67 64 33 67 64 33 67 64 33 67 64 33 66 65 33 66 65 33 66 65 33 66 65 33 66 65 33 161 161 82 161 162 82 160 162 82 160 163 82 159 163 82 159 163 82 158 164 82 158 164 82 157 165 82 156 165 82 156 165 82 155 165 82 63 67 33 63 67 33 62 68 33 62 68 33 62 68 33 61 68 33 61 68 33 61 68 33 61 68 33 60 68 33 60 68 33 147 168 80 146 168 80 145 168 80 145 168 80 144 168 80 143 168 79 142 168 79 141 168 79 141 168 79
